<svg xmlns="http://www.w3.org/2000/svg" xmlns:xlink="http://www.w3.org/1999/xlink" width="375" viewBox="0 0 375 375" height="375" version="1.0"><defs><clipPath id="a"><path d="M 225 69 L 346 69 L 346 178 L 225 178 Z M 225 69"/></clipPath><clipPath id="b"><path d="M 289 365.625 L 70.988281 323.730469 L 127.746094 28.382812 L 345.753906 70.277344 Z M 289 365.625"/></clipPath><clipPath id="c"><path d="M 289 365.625 L 70.988281 323.730469 L 127.746094 28.382812 L 345.753906 70.277344 Z M 289 365.625"/></clipPath><clipPath id="d"><path d="M 289 365.625 L 70.988281 323.730469 L 127.746094 28.382812 L 345.753906 70.277344 Z M 289 365.625"/></clipPath><clipPath id="e"><path d="M 260.941406 89.542969 L 339.773438 69.445312 C 339.773438 69.445312 349.425781 68.894531 342.824219 75.941406 C 336.222656 82.988281 242.628906 177.5625 242.628906 177.5625 L 225.933594 110.4375 Z M 260.941406 89.542969"/></clipPath><clipPath id="g"><path d="M 228 86 L 272 86 L 272 172 L 228 172 Z M 228 86"/></clipPath><clipPath id="h"><path d="M 289 365.625 L 70.988281 323.730469 L 127.746094 28.382812 L 345.753906 70.277344 Z M 289 365.625"/></clipPath><clipPath id="i"><path d="M 289 365.625 L 70.988281 323.730469 L 127.746094 28.382812 L 345.753906 70.277344 Z M 289 365.625"/></clipPath><clipPath id="j"><path d="M 289 365.625 L 70.988281 323.730469 L 127.746094 28.382812 L 345.753906 70.277344 Z M 289 365.625"/></clipPath><clipPath id="k"><path d="M 245.6875 171.707031 L 264.902344 153.117188 C 264.902344 153.117188 236.761719 116.8125 271.878906 86.640625 L 230.058594 97.300781 C 230.058594 97.300781 220.117188 165.550781 245.6875 171.707031 Z M 245.6875 171.707031"/></clipPath><clipPath id="m"><path d="M 71 216 L 191 216 L 191 325 L 71 325 Z M 71 216"/></clipPath><clipPath id="n"><path d="M 289 365.625 L 70.988281 323.730469 L 127.746094 28.382812 L 345.753906 70.277344 Z M 289 365.625"/></clipPath><clipPath id="o"><path d="M 289 365.625 L 70.988281 323.730469 L 127.746094 28.382812 L 345.753906 70.277344 Z M 289 365.625"/></clipPath><clipPath id="p"><path d="M 289 365.625 L 70.988281 323.730469 L 127.746094 28.382812 L 345.753906 70.277344 Z M 289 365.625"/></clipPath><clipPath id="q"><path d="M 155.761719 304.457031 L 76.933594 324.558594 C 76.933594 324.558594 67.28125 325.105469 73.882812 318.058594 C 80.484375 311.015625 174.136719 216.453125 174.136719 216.453125 L 190.828125 283.574219 Z M 155.761719 304.457031"/></clipPath><clipPath id="s"><path d="M 143 222 L 188 222 L 188 308 L 143 308 Z M 143 222"/></clipPath><clipPath id="t"><path d="M 289 365.625 L 70.988281 323.730469 L 127.746094 28.382812 L 345.753906 70.277344 Z M 289 365.625"/></clipPath><clipPath id="u"><path d="M 289 365.625 L 70.988281 323.730469 L 127.746094 28.382812 L 345.753906 70.277344 Z M 289 365.625"/></clipPath><clipPath id="v"><path d="M 289 365.625 L 70.988281 323.730469 L 127.746094 28.382812 L 345.753906 70.277344 Z M 289 365.625"/></clipPath><clipPath id="w"><path d="M 169.5625 222.273438 L 150.347656 240.863281 C 150.347656 240.863281 178.488281 277.164062 143.375 307.320312 L 185.195312 296.65625 C 185.195312 296.65625 195.136719 228.40625 169.5625 222.273438 Z M 169.5625 222.273438"/></clipPath><clipPath id="y"><path d="M 152 86 L 273 86 L 273 305 L 152 305 Z M 152 86"/></clipPath><clipPath id="z"><path d="M 289 365.625 L 70.988281 323.730469 L 127.746094 28.382812 L 345.753906 70.277344 Z M 289 365.625"/></clipPath><clipPath id="A"><path d="M 289 365.625 L 70.988281 323.730469 L 127.746094 28.382812 L 345.753906 70.277344 Z M 289 365.625"/></clipPath><clipPath id="B"><path d="M 289 365.625 L 70.988281 323.730469 L 127.746094 28.382812 L 345.753906 70.277344 Z M 289 365.625"/></clipPath><clipPath id="C"><path d="M 153.917969 304.929688 L 251.582031 280.039062 C 251.582031 280.039062 268.699219 275.035156 264.429688 258.449219 L 235.988281 147.539062 C 235.988281 147.539062 220.757812 100.320312 272.382812 86.382812 C 247.816406 92.65625 170.539062 112.578125 164.832031 114.042969 C 159.128906 115.507812 149.257812 127.128906 153.039062 141.84375 C 157.230469 158.234375 177.652344 239.628906 177.652344 239.628906 C 177.652344 239.628906 193.261719 286.40625 153.917969 304.929688 Z M 153.917969 304.929688"/></clipPath><linearGradient x1="-300.838" gradientTransform="matrix(-.48002 -1.87482 1.87687 -.47852 -4535.623 811.2)" xmlns:xlink="http://www.w3.org/1999/xlink" y1="2457.612" x2="-229.064" gradientUnits="userSpaceOnUse" y2="2529.387" xlink:type="simple" xlink:actuate="onLoad" id="f" xlink:show="other"><stop stop-color="#1B489C" offset="0"/><stop stop-color="#1B489C" offset=".125"/><stop stop-color="#1B489C" offset=".156"/><stop stop-color="#1B4A9D" offset=".16"/><stop stop-color="#1C4A9E" offset=".164"/><stop stop-color="#1C4B9E" offset=".168"/><stop stop-color="#1C4C9F" offset=".172"/><stop stop-color="#1C4C9F" offset=".176"/><stop stop-color="#1C4D9F" offset=".18"/><stop stop-color="#1C4EA0" offset=".184"/><stop stop-color="#1C4EA0" offset=".188"/><stop stop-color="#1D4FA1" offset=".191"/><stop stop-color="#1D50A1" offset=".195"/><stop stop-color="#1D50A2" offset=".199"/><stop stop-color="#1D51A2" offset=".203"/><stop stop-color="#1D51A3" offset=".207"/><stop stop-color="#1D52A3" offset=".211"/><stop stop-color="#1D53A3" offset=".215"/><stop stop-color="#1E53A4" offset=".219"/><stop stop-color="#1E54A4" offset=".223"/><stop stop-color="#1E55A5" offset=".227"/><stop stop-color="#1E55A5" offset=".23"/><stop stop-color="#1E56A6" offset=".234"/><stop stop-color="#1E57A6" offset=".238"/><stop stop-color="#1E57A7" offset=".242"/><stop stop-color="#1F58A7" offset=".246"/><stop stop-color="#1F59A7" offset=".25"/><stop stop-color="#1F59A8" offset=".254"/><stop stop-color="#1F5AA8" offset=".258"/><stop stop-color="#1F5BA9" offset=".262"/><stop stop-color="#1F5BA9" offset=".266"/><stop stop-color="#1F5CAA" offset=".27"/><stop stop-color="#205DAA" offset=".273"/><stop stop-color="#205DAB" offset=".277"/><stop stop-color="#205EAB" offset=".281"/><stop stop-color="#205FAB" offset=".285"/><stop stop-color="#205FAC" offset=".289"/><stop stop-color="#2060AC" offset=".293"/><stop stop-color="#2061AD" offset=".297"/><stop stop-color="#2161AD" offset=".301"/><stop stop-color="#2162AE" offset=".305"/><stop stop-color="#2163AE" offset=".309"/><stop stop-color="#2163AF" offset=".313"/><stop stop-color="#2164AF" offset=".316"/><stop stop-color="#2165AF" offset=".32"/><stop stop-color="#2165B0" offset=".324"/><stop stop-color="#2266B0" offset=".328"/><stop stop-color="#2267B1" offset=".332"/><stop stop-color="#2267B1" offset=".336"/><stop stop-color="#2268B2" offset=".34"/><stop stop-color="#2269B2" offset=".344"/><stop stop-color="#2269B3" offset=".348"/><stop stop-color="#226AB3" offset=".352"/><stop stop-color="#236BB4" offset=".355"/><stop stop-color="#236BB4" offset=".359"/><stop stop-color="#236CB4" offset=".363"/><stop stop-color="#236DB5" offset=".367"/><stop stop-color="#236DB5" offset=".371"/><stop stop-color="#236EB6" offset=".375"/><stop stop-color="#236FB6" offset=".379"/><stop stop-color="#246FB7" offset=".383"/><stop stop-color="#2470B7" offset=".387"/><stop stop-color="#2471B8" offset=".391"/><stop stop-color="#2471B8" offset=".395"/><stop stop-color="#2472B8" offset=".398"/><stop stop-color="#2473B9" offset=".402"/><stop stop-color="#2473B9" offset=".406"/><stop stop-color="#2574BA" offset=".41"/><stop stop-color="#2575BA" offset=".414"/><stop stop-color="#2575BB" offset=".418"/><stop stop-color="#2576BB" offset=".422"/><stop stop-color="#2577BC" offset=".426"/><stop stop-color="#2577BC" offset=".43"/><stop stop-color="#2578BC" offset=".434"/><stop stop-color="#2679BD" offset=".438"/><stop stop-color="#2679BD" offset=".441"/><stop stop-color="#267ABE" offset=".445"/><stop stop-color="#267ABE" offset=".449"/><stop stop-color="#267BBF" offset=".453"/><stop stop-color="#267CBF" offset=".457"/><stop stop-color="#267CC0" offset=".461"/><stop stop-color="#277DC0" offset=".465"/><stop stop-color="#277EC0" offset=".469"/><stop stop-color="#277EC1" offset=".473"/><stop stop-color="#277FC1" offset=".477"/><stop stop-color="#2780C2" offset=".48"/><stop stop-color="#2780C2" offset=".484"/><stop stop-color="#2781C3" offset=".488"/><stop stop-color="#2882C3" offset=".492"/><stop stop-color="#2882C4" offset=".496"/><stop stop-color="#2883C4" offset=".5"/><stop stop-color="#2884C4" offset=".504"/><stop stop-color="#2884C5" offset=".508"/><stop stop-color="#2885C5" offset=".512"/><stop stop-color="#2886C6" offset=".516"/><stop stop-color="#2986C6" offset=".52"/><stop stop-color="#2987C7" offset=".523"/><stop stop-color="#2988C7" offset=".527"/><stop stop-color="#2988C8" offset=".531"/><stop stop-color="#2989C8" offset=".535"/><stop stop-color="#298AC9" offset=".539"/><stop stop-color="#298AC9" offset=".543"/><stop stop-color="#2A8BC9" offset=".547"/><stop stop-color="#2A8CCA" offset=".551"/><stop stop-color="#2A8CCA" offset=".555"/><stop stop-color="#2A8DCB" offset=".559"/><stop stop-color="#2A8ECB" offset=".563"/><stop stop-color="#2A8ECC" offset=".566"/><stop stop-color="#2B8FCC" offset=".57"/><stop stop-color="#2B90CD" offset=".574"/><stop stop-color="#2B90CD" offset=".578"/><stop stop-color="#2B91CD" offset=".582"/><stop stop-color="#2B92CE" offset=".586"/><stop stop-color="#2B92CE" offset=".59"/><stop stop-color="#2B93CF" offset=".594"/><stop stop-color="#2C94CF" offset=".598"/><stop stop-color="#2C94D0" offset=".602"/><stop stop-color="#2C95D0" offset=".605"/><stop stop-color="#2C96D1" offset=".609"/><stop stop-color="#2C96D1" offset=".613"/><stop stop-color="#2C97D1" offset=".617"/><stop stop-color="#2C98D2" offset=".621"/><stop stop-color="#2D98D2" offset=".625"/><stop stop-color="#2D99D3" offset=".629"/><stop stop-color="#2D9AD3" offset=".633"/><stop stop-color="#2D9AD4" offset=".637"/><stop stop-color="#2D9BD4" offset=".641"/><stop stop-color="#2D9CD5" offset=".645"/><stop stop-color="#2D9CD5" offset=".648"/><stop stop-color="#2E9DD5" offset=".652"/><stop stop-color="#2E9ED6" offset=".656"/><stop stop-color="#2E9ED6" offset=".66"/><stop stop-color="#2E9FD7" offset=".664"/><stop stop-color="#2EA0D7" offset=".668"/><stop stop-color="#2EA0D8" offset=".672"/><stop stop-color="#2EA1D8" offset=".676"/><stop stop-color="#2FA2D9" offset=".68"/><stop stop-color="#2FA2D9" offset=".684"/><stop stop-color="#2FA3D9" offset=".688"/><stop stop-color="#2FA3DA" offset=".691"/><stop stop-color="#2FA4DA" offset=".695"/><stop stop-color="#2FA5DB" offset=".699"/><stop stop-color="#2FA5DB" offset=".703"/><stop stop-color="#30A6DC" offset=".707"/><stop stop-color="#30A7DC" offset=".711"/><stop stop-color="#30A7DD" offset=".715"/><stop stop-color="#30A8DD" offset=".719"/><stop stop-color="#30A9DE" offset=".723"/><stop stop-color="#30A9DE" offset=".727"/><stop stop-color="#30AADE" offset=".73"/><stop stop-color="#31ABDF" offset=".734"/><stop stop-color="#31ABDF" offset=".738"/><stop stop-color="#31ACE0" offset=".742"/><stop stop-color="#31ADE0" offset=".746"/><stop stop-color="#31ADE1" offset=".75"/><stop stop-color="#31AEE1" offset=".754"/><stop stop-color="#31AFE2" offset=".758"/><stop stop-color="#32AFE2" offset=".762"/><stop stop-color="#32B0E2" offset=".766"/><stop stop-color="#32B1E3" offset=".77"/><stop stop-color="#32B1E3" offset=".773"/><stop stop-color="#32B2E4" offset=".777"/><stop stop-color="#32B3E4" offset=".781"/><stop stop-color="#32B3E5" offset=".785"/><stop stop-color="#33B4E5" offset=".789"/><stop stop-color="#33B5E6" offset=".793"/><stop stop-color="#33B5E6" offset=".797"/><stop stop-color="#33B6E6" offset=".801"/><stop stop-color="#33B7E7" offset=".805"/><stop stop-color="#33B7E7" offset=".809"/><stop stop-color="#33B8E8" offset=".813"/><stop stop-color="#34B9E8" offset=".816"/><stop stop-color="#34B9E9" offset=".82"/><stop stop-color="#34BAE9" offset=".824"/><stop stop-color="#34BBEA" offset=".828"/><stop stop-color="#34BBEA" offset=".832"/><stop stop-color="#34BCEA" offset=".836"/><stop stop-color="#34BDEB" offset=".84"/><stop stop-color="#35BDEB" offset=".844"/><stop stop-color="#35BEEC" offset=".848"/><stop stop-color="#35BFEC" offset=".852"/><stop stop-color="#35BFED" offset=".855"/><stop stop-color="#35C0ED" offset=".859"/><stop stop-color="#35C1EE" offset=".863"/><stop stop-color="#35C1EE" offset=".867"/><stop stop-color="#36C2EE" offset=".871"/><stop stop-color="#36C3EF" offset=".875"/><stop stop-color="#36C3EF" offset=".879"/><stop stop-color="#36C4F0" offset=".883"/><stop stop-color="#36C4F0" offset=".891"/><stop stop-color="#36C4F0" offset=".906"/><stop stop-color="#36C4F0" offset=".938"/><stop stop-color="#36C4F0" offset="1"/></linearGradient><linearGradient x1="-272.474" gradientTransform="matrix(-.48002 -1.87482 1.87687 -.47852 -4535.623 811.2)" xmlns:xlink="http://www.w3.org/1999/xlink" y1="2457.771" x2="-266.988" gradientUnits="userSpaceOnUse" y2="2500.203" xlink:type="simple" xlink:actuate="onLoad" id="l" xlink:show="other"><stop stop-color="#00468F" offset="0"/><stop stop-color="#004690" offset=".147"/><stop stop-color="#014790" offset=".5"/><stop stop-color="#014791" offset=".516"/><stop stop-color="#024891" offset=".531"/><stop stop-color="#034892" offset=".547"/><stop stop-color="#044993" offset=".563"/><stop stop-color="#054A94" offset=".578"/><stop stop-color="#064A95" offset=".594"/><stop stop-color="#074B96" offset=".609"/><stop stop-color="#084C97" offset=".625"/><stop stop-color="#084C98" offset=".641"/><stop stop-color="#094D99" offset=".656"/><stop stop-color="#0A4E9A" offset=".672"/><stop stop-color="#0B4E9B" offset=".688"/><stop stop-color="#0C4F9C" offset=".703"/><stop stop-color="#0D509D" offset=".719"/><stop stop-color="#0E509E" offset=".734"/><stop stop-color="#0F519F" offset=".75"/><stop stop-color="#0F52A0" offset=".766"/><stop stop-color="#1052A1" offset=".781"/><stop stop-color="#1153A2" offset=".797"/><stop stop-color="#1254A3" offset=".813"/><stop stop-color="#1355A4" offset=".828"/><stop stop-color="#1455A5" offset=".844"/><stop stop-color="#1556A6" offset=".853"/><stop stop-color="#1556A6" offset=".875"/><stop stop-color="#1556A6" offset="1"/></linearGradient><linearGradient x1="-324.16" gradientTransform="matrix(-.48002 -1.87482 1.87687 -.47852 -4535.623 811.2)" xmlns:xlink="http://www.w3.org/1999/xlink" y1="2440.111" x2="-324.16" gradientUnits="userSpaceOnUse" y2="2366.259" xlink:type="simple" xlink:actuate="onLoad" id="r" xlink:show="other"><stop stop-color="#1B489C" offset="0"/><stop stop-color="#1B489C" offset=".063"/><stop stop-color="#1B489C" offset=".094"/><stop stop-color="#1B489C" offset=".109"/><stop stop-color="#1B489C" offset=".117"/><stop stop-color="#1B499D" offset=".121"/><stop stop-color="#1B499D" offset=".125"/><stop stop-color="#1B4A9E" offset=".129"/><stop stop-color="#1C4B9E" offset=".133"/><stop stop-color="#1C4B9E" offset=".137"/><stop stop-color="#1C4C9F" offset=".141"/><stop stop-color="#1C4C9F" offset=".145"/><stop stop-color="#1C4D9F" offset=".148"/><stop stop-color="#1C4DA0" offset=".152"/><stop stop-color="#1C4EA0" offset=".156"/><stop stop-color="#1C4EA0" offset=".16"/><stop stop-color="#1D4FA1" offset=".164"/><stop stop-color="#1D50A1" offset=".168"/><stop stop-color="#1D50A2" offset=".172"/><stop stop-color="#1D51A2" offset=".176"/><stop stop-color="#1D51A2" offset=".18"/><stop stop-color="#1D52A3" offset=".184"/><stop stop-color="#1D52A3" offset=".188"/><stop stop-color="#1D53A3" offset=".191"/><stop stop-color="#1E53A4" offset=".195"/><stop stop-color="#1E54A4" offset=".199"/><stop stop-color="#1E55A5" offset=".203"/><stop stop-color="#1E55A5" offset=".207"/><stop stop-color="#1E56A5" offset=".211"/><stop stop-color="#1E56A6" offset=".215"/><stop stop-color="#1E57A6" offset=".219"/><stop stop-color="#1E57A6" offset=".223"/><stop stop-color="#1F58A7" offset=".227"/><stop stop-color="#1F58A7" offset=".23"/><stop stop-color="#1F59A8" offset=".234"/><stop stop-color="#1F5AA8" offset=".238"/><stop stop-color="#1F5AA8" offset=".242"/><stop stop-color="#1F5BA9" offset=".246"/><stop stop-color="#1F5BA9" offset=".25"/><stop stop-color="#1F5CA9" offset=".254"/><stop stop-color="#1F5CAA" offset=".258"/><stop stop-color="#205DAA" offset=".262"/><stop stop-color="#205DAB" offset=".266"/><stop stop-color="#205EAB" offset=".27"/><stop stop-color="#205EAB" offset=".273"/><stop stop-color="#205FAC" offset=".277"/><stop stop-color="#2060AC" offset=".281"/><stop stop-color="#2060AC" offset=".285"/><stop stop-color="#2061AD" offset=".289"/><stop stop-color="#2161AD" offset=".293"/><stop stop-color="#2162AE" offset=".297"/><stop stop-color="#2162AE" offset=".301"/><stop stop-color="#2163AE" offset=".305"/><stop stop-color="#2163AF" offset=".309"/><stop stop-color="#2164AF" offset=".313"/><stop stop-color="#2165AF" offset=".316"/><stop stop-color="#2165B0" offset=".32"/><stop stop-color="#2266B0" offset=".324"/><stop stop-color="#2266B1" offset=".328"/><stop stop-color="#2267B1" offset=".332"/><stop stop-color="#2267B1" offset=".336"/><stop stop-color="#2268B2" offset=".34"/><stop stop-color="#2268B2" offset=".344"/><stop stop-color="#2269B2" offset=".348"/><stop stop-color="#226AB3" offset=".352"/><stop stop-color="#226AB3" offset=".355"/><stop stop-color="#236BB4" offset=".359"/><stop stop-color="#236BB4" offset=".363"/><stop stop-color="#236CB4" offset=".367"/><stop stop-color="#236CB5" offset=".371"/><stop stop-color="#236DB5" offset=".375"/><stop stop-color="#236DB5" offset=".379"/><stop stop-color="#236EB6" offset=".383"/><stop stop-color="#236FB6" offset=".387"/><stop stop-color="#246FB7" offset=".391"/><stop stop-color="#2470B7" offset=".395"/><stop stop-color="#2470B7" offset=".398"/><stop stop-color="#2471B8" offset=".402"/><stop stop-color="#2471B8" offset=".406"/><stop stop-color="#2472B8" offset=".41"/><stop stop-color="#2472B9" offset=".414"/><stop stop-color="#2473B9" offset=".418"/><stop stop-color="#2573B9" offset=".422"/><stop stop-color="#2574BA" offset=".426"/><stop stop-color="#2575BA" offset=".43"/><stop stop-color="#2575BB" offset=".434"/><stop stop-color="#2576BB" offset=".438"/><stop stop-color="#2576BB" offset=".441"/><stop stop-color="#2577BC" offset=".445"/><stop stop-color="#2577BC" offset=".449"/><stop stop-color="#2578BC" offset=".453"/><stop stop-color="#2678BD" offset=".457"/><stop stop-color="#2679BD" offset=".461"/><stop stop-color="#267ABE" offset=".465"/><stop stop-color="#267ABE" offset=".469"/><stop stop-color="#267BBE" offset=".473"/><stop stop-color="#267BBF" offset=".477"/><stop stop-color="#267CBF" offset=".48"/><stop stop-color="#267CBF" offset=".484"/><stop stop-color="#277DC0" offset=".488"/><stop stop-color="#277DC0" offset=".492"/><stop stop-color="#277EC1" offset=".496"/><stop stop-color="#277FC1" offset=".5"/><stop stop-color="#277FC1" offset=".504"/><stop stop-color="#2780C2" offset=".508"/><stop stop-color="#2780C2" offset=".512"/><stop stop-color="#2781C2" offset=".516"/><stop stop-color="#2881C3" offset=".52"/><stop stop-color="#2882C3" offset=".523"/><stop stop-color="#2882C4" offset=".527"/><stop stop-color="#2883C4" offset=".531"/><stop stop-color="#2884C4" offset=".535"/><stop stop-color="#2884C5" offset=".539"/><stop stop-color="#2885C5" offset=".543"/><stop stop-color="#2885C5" offset=".547"/><stop stop-color="#2886C6" offset=".551"/><stop stop-color="#2986C6" offset=".555"/><stop stop-color="#2987C7" offset=".559"/><stop stop-color="#2987C7" offset=".563"/><stop stop-color="#2988C7" offset=".566"/><stop stop-color="#2988C8" offset=".57"/><stop stop-color="#2989C8" offset=".574"/><stop stop-color="#298AC8" offset=".578"/><stop stop-color="#298AC9" offset=".582"/><stop stop-color="#2A8BC9" offset=".586"/><stop stop-color="#2A8BCA" offset=".59"/><stop stop-color="#2A8CCA" offset=".594"/><stop stop-color="#2A8CCA" offset=".598"/><stop stop-color="#2A8DCB" offset=".602"/><stop stop-color="#2A8DCB" offset=".605"/><stop stop-color="#2A8ECB" offset=".609"/><stop stop-color="#2A8FCC" offset=".613"/><stop stop-color="#2B8FCC" offset=".617"/><stop stop-color="#2B90CD" offset=".621"/><stop stop-color="#2B90CD" offset=".625"/><stop stop-color="#2B91CD" offset=".629"/><stop stop-color="#2B91CE" offset=".633"/><stop stop-color="#2B92CE" offset=".637"/><stop stop-color="#2B92CE" offset=".641"/><stop stop-color="#2B93CF" offset=".645"/><stop stop-color="#2B94CF" offset=".648"/><stop stop-color="#2C94D0" offset=".652"/><stop stop-color="#2C95D0" offset=".656"/><stop stop-color="#2C95D0" offset=".66"/><stop stop-color="#2C96D1" offset=".664"/><stop stop-color="#2C96D1" offset=".668"/><stop stop-color="#2C97D1" offset=".672"/><stop stop-color="#2C97D2" offset=".676"/><stop stop-color="#2C98D2" offset=".68"/><stop stop-color="#2D99D3" offset=".684"/><stop stop-color="#2D99D3" offset=".688"/><stop stop-color="#2D9AD3" offset=".691"/><stop stop-color="#2D9AD4" offset=".695"/><stop stop-color="#2D9BD4" offset=".699"/><stop stop-color="#2D9BD4" offset=".703"/><stop stop-color="#2D9CD5" offset=".707"/><stop stop-color="#2D9CD5" offset=".711"/><stop stop-color="#2E9DD5" offset=".715"/><stop stop-color="#2E9DD6" offset=".719"/><stop stop-color="#2E9ED6" offset=".723"/><stop stop-color="#2E9FD7" offset=".727"/><stop stop-color="#2E9FD7" offset=".73"/><stop stop-color="#2EA0D7" offset=".734"/><stop stop-color="#2EA0D8" offset=".738"/><stop stop-color="#2EA1D8" offset=".742"/><stop stop-color="#2EA1D8" offset=".746"/><stop stop-color="#2FA2D9" offset=".75"/><stop stop-color="#2FA2D9" offset=".754"/><stop stop-color="#2FA3DA" offset=".758"/><stop stop-color="#2FA4DA" offset=".762"/><stop stop-color="#2FA4DA" offset=".766"/><stop stop-color="#2FA5DB" offset=".77"/><stop stop-color="#2FA5DB" offset=".773"/><stop stop-color="#2FA6DB" offset=".777"/><stop stop-color="#30A6DC" offset=".781"/><stop stop-color="#30A7DC" offset=".785"/><stop stop-color="#30A7DD" offset=".789"/><stop stop-color="#30A8DD" offset=".793"/><stop stop-color="#30A9DD" offset=".797"/><stop stop-color="#30A9DE" offset=".801"/><stop stop-color="#30AADE" offset=".805"/><stop stop-color="#30AADE" offset=".809"/><stop stop-color="#31ABDF" offset=".813"/><stop stop-color="#31ABDF" offset=".816"/><stop stop-color="#31ACE0" offset=".82"/><stop stop-color="#31ACE0" offset=".824"/><stop stop-color="#31ADE0" offset=".828"/><stop stop-color="#31AEE1" offset=".832"/><stop stop-color="#31AEE1" offset=".836"/><stop stop-color="#31AFE1" offset=".84"/><stop stop-color="#32AFE2" offset=".844"/><stop stop-color="#32B0E2" offset=".848"/><stop stop-color="#32B0E3" offset=".852"/><stop stop-color="#32B1E3" offset=".855"/><stop stop-color="#32B1E3" offset=".859"/><stop stop-color="#32B2E4" offset=".863"/><stop stop-color="#32B2E4" offset=".867"/><stop stop-color="#32B3E4" offset=".871"/><stop stop-color="#32B4E5" offset=".875"/><stop stop-color="#33B4E5" offset=".879"/><stop stop-color="#33B5E6" offset=".883"/><stop stop-color="#33B5E6" offset=".887"/><stop stop-color="#33B6E6" offset=".891"/><stop stop-color="#33B6E7" offset=".895"/><stop stop-color="#33B7E7" offset=".898"/><stop stop-color="#33B7E7" offset=".902"/><stop stop-color="#33B8E8" offset=".906"/><stop stop-color="#34B9E8" offset=".91"/><stop stop-color="#34B9E9" offset=".914"/><stop stop-color="#34BAE9" offset=".918"/><stop stop-color="#34BAE9" offset=".922"/><stop stop-color="#34BBEA" offset=".926"/><stop stop-color="#34BBEA" offset=".93"/><stop stop-color="#34BCEA" offset=".934"/><stop stop-color="#34BCEB" offset=".938"/><stop stop-color="#35BDEB" offset=".941"/><stop stop-color="#35BEEC" offset=".945"/><stop stop-color="#35BEEC" offset=".949"/><stop stop-color="#35BFEC" offset=".953"/><stop stop-color="#35BFED" offset=".957"/><stop stop-color="#35C0ED" offset=".961"/><stop stop-color="#35C0ED" offset=".965"/><stop stop-color="#35C1EE" offset=".969"/><stop stop-color="#35C1EE" offset=".973"/><stop stop-color="#36C2EF" offset=".977"/><stop stop-color="#36C2EF" offset=".98"/><stop stop-color="#36C3EF" offset=".984"/><stop stop-color="#36C4F0" offset=".988"/><stop stop-color="#36C4F0" offset=".992"/><stop stop-color="#36C4F0" offset="1"/></linearGradient><linearGradient x1="149.444" gradientTransform="matrix(-1.78507 -.75267 .75272 -1.78253 536.714 254.467)" xmlns:xlink="http://www.w3.org/1999/xlink" y1="-55.845" x2="197.447" gradientUnits="userSpaceOnUse" y2="-99.854" xlink:type="simple" xlink:actuate="onLoad" id="x" xlink:show="other"><stop stop-color="#00468F" offset="0"/><stop stop-color="#00468F" offset=".25"/><stop stop-color="#00468F" offset=".375"/><stop stop-color="#004690" offset=".438"/><stop stop-color="#014791" offset=".445"/><stop stop-color="#024892" offset=".453"/><stop stop-color="#034993" offset=".461"/><stop stop-color="#044993" offset=".469"/><stop stop-color="#054A94" offset=".472"/><stop stop-color="#054A95" offset=".477"/><stop stop-color="#064B95" offset=".484"/><stop stop-color="#074B96" offset=".492"/><stop stop-color="#084C97" offset=".5"/><stop stop-color="#094D98" offset=".508"/><stop stop-color="#094D99" offset=".516"/><stop stop-color="#0A4E9A" offset=".523"/><stop stop-color="#0B4F9B" offset=".528"/><stop stop-color="#0C4F9C" offset=".531"/><stop stop-color="#0C4F9C" offset=".539"/><stop stop-color="#0D509D" offset=".547"/><stop stop-color="#0E519E" offset=".555"/><stop stop-color="#0F519F" offset=".563"/><stop stop-color="#1052A0" offset=".57"/><stop stop-color="#1153A1" offset=".578"/><stop stop-color="#1253A2" offset=".586"/><stop stop-color="#1254A3" offset=".594"/><stop stop-color="#1355A4" offset=".602"/><stop stop-color="#1455A5" offset=".609"/><stop stop-color="#1556A6" offset=".625"/><stop stop-color="#1556A6" offset=".75"/><stop stop-color="#1556A6" offset="1"/></linearGradient><linearGradient x1="-360.283" gradientTransform="matrix(-.48002 -1.87482 1.87687 -.47852 -4535.623 811.2)" xmlns:xlink="http://www.w3.org/1999/xlink" y1="2453.88" x2="-235.139" gradientUnits="userSpaceOnUse" y2="2453.88" xlink:type="simple" xlink:actuate="onLoad" id="D" xlink:show="other"><stop stop-color="#246CB4" offset="0"/><stop stop-color="#246CB4" offset=".125"/><stop stop-color="#236DB5" offset=".129"/><stop stop-color="#226DB6" offset=".133"/><stop stop-color="#216DB6" offset=".137"/><stop stop-color="#206EB7" offset=".141"/><stop stop-color="#1F6EB8" offset=".145"/><stop stop-color="#1E6EB8" offset=".148"/><stop stop-color="#1E6EB9" offset=".152"/><stop stop-color="#1D6FB9" offset=".156"/><stop stop-color="#1C6FBA" offset=".16"/><stop stop-color="#1B6FBB" offset=".164"/><stop stop-color="#1A70BB" offset=".168"/><stop stop-color="#1A70BC" offset=".172"/><stop stop-color="#1970BD" offset=".176"/><stop stop-color="#1870BD" offset=".18"/><stop stop-color="#1771BE" offset=".184"/><stop stop-color="#1671BE" offset=".188"/><stop stop-color="#1671BF" offset=".191"/><stop stop-color="#1572C0" offset=".195"/><stop stop-color="#1472C0" offset=".199"/><stop stop-color="#1372C1" offset=".203"/><stop stop-color="#1273C1" offset=".207"/><stop stop-color="#1173C2" offset=".211"/><stop stop-color="#1173C3" offset=".215"/><stop stop-color="#1073C3" offset=".219"/><stop stop-color="#0F74C4" offset=".223"/><stop stop-color="#0E74C5" offset=".227"/><stop stop-color="#0D74C5" offset=".23"/><stop stop-color="#0D75C6" offset=".234"/><stop stop-color="#0C75C6" offset=".238"/><stop stop-color="#0B75C7" offset=".242"/><stop stop-color="#0A76C8" offset=".246"/><stop stop-color="#0976C8" offset=".25"/><stop stop-color="#0976C9" offset=".254"/><stop stop-color="#0876C9" offset=".258"/><stop stop-color="#0777CA" offset=".262"/><stop stop-color="#0677CB" offset=".266"/><stop stop-color="#0577CB" offset=".27"/><stop stop-color="#0478CC" offset=".273"/><stop stop-color="#0478CD" offset=".277"/><stop stop-color="#0378CD" offset=".281"/><stop stop-color="#0479CD" offset=".285"/><stop stop-color="#047ACE" offset=".289"/><stop stop-color="#047ACE" offset=".293"/><stop stop-color="#057BCE" offset=".297"/><stop stop-color="#057CCF" offset=".301"/><stop stop-color="#067CCF" offset=".305"/><stop stop-color="#067DCF" offset=".309"/><stop stop-color="#077DCF" offset=".313"/><stop stop-color="#077ED0" offset=".316"/><stop stop-color="#087FD0" offset=".32"/><stop stop-color="#087FD0" offset=".324"/><stop stop-color="#0880D1" offset=".328"/><stop stop-color="#0981D1" offset=".332"/><stop stop-color="#0981D1" offset=".336"/><stop stop-color="#0A82D2" offset=".34"/><stop stop-color="#0A83D2" offset=".344"/><stop stop-color="#0B83D2" offset=".348"/><stop stop-color="#0B84D2" offset=".352"/><stop stop-color="#0B85D3" offset=".355"/><stop stop-color="#0C85D3" offset=".359"/><stop stop-color="#0C86D3" offset=".363"/><stop stop-color="#0D86D4" offset=".367"/><stop stop-color="#0D87D4" offset=".371"/><stop stop-color="#0E88D4" offset=".375"/><stop stop-color="#0E88D5" offset=".379"/><stop stop-color="#0E89D5" offset=".383"/><stop stop-color="#0F8AD5" offset=".387"/><stop stop-color="#0F8AD5" offset=".391"/><stop stop-color="#108BD6" offset=".395"/><stop stop-color="#108CD6" offset=".398"/><stop stop-color="#118CD6" offset=".402"/><stop stop-color="#118DD7" offset=".406"/><stop stop-color="#118ED7" offset=".41"/><stop stop-color="#128ED7" offset=".414"/><stop stop-color="#128FD7" offset=".418"/><stop stop-color="#1390D8" offset=".422"/><stop stop-color="#1390D8" offset=".426"/><stop stop-color="#1491D8" offset=".43"/><stop stop-color="#1491D9" offset=".434"/><stop stop-color="#1592D9" offset=".438"/><stop stop-color="#1593D9" offset=".441"/><stop stop-color="#1593DA" offset=".445"/><stop stop-color="#1694DA" offset=".449"/><stop stop-color="#1695DA" offset=".453"/><stop stop-color="#1795DA" offset=".457"/><stop stop-color="#1796DB" offset=".461"/><stop stop-color="#1897DB" offset=".465"/><stop stop-color="#1897DB" offset=".469"/><stop stop-color="#1898DC" offset=".473"/><stop stop-color="#1999DC" offset=".477"/><stop stop-color="#1999DC" offset=".48"/><stop stop-color="#1A9ADD" offset=".484"/><stop stop-color="#1A9BDD" offset=".488"/><stop stop-color="#1B9BDD" offset=".492"/><stop stop-color="#1B9CDD" offset=".496"/><stop stop-color="#1B9CDE" offset=".5"/><stop stop-color="#1C9DDE" offset=".504"/><stop stop-color="#1C9EDE" offset=".508"/><stop stop-color="#1D9EDF" offset=".512"/><stop stop-color="#1D9FDF" offset=".516"/><stop stop-color="#1EA0DF" offset=".52"/><stop stop-color="#1EA0E0" offset=".523"/><stop stop-color="#1EA1E0" offset=".527"/><stop stop-color="#1FA2E0" offset=".531"/><stop stop-color="#1FA2E0" offset=".535"/><stop stop-color="#20A3E1" offset=".539"/><stop stop-color="#20A4E1" offset=".543"/><stop stop-color="#21A4E1" offset=".547"/><stop stop-color="#21A5E2" offset=".551"/><stop stop-color="#22A5E2" offset=".555"/><stop stop-color="#22A6E2" offset=".559"/><stop stop-color="#22A7E2" offset=".563"/><stop stop-color="#23A7E3" offset=".566"/><stop stop-color="#23A8E3" offset=".57"/><stop stop-color="#24A9E3" offset=".574"/><stop stop-color="#24A9E4" offset=".578"/><stop stop-color="#25AAE4" offset=".582"/><stop stop-color="#25ABE4" offset=".586"/><stop stop-color="#25ABE5" offset=".59"/><stop stop-color="#26ACE5" offset=".594"/><stop stop-color="#26ADE5" offset=".598"/><stop stop-color="#27ADE5" offset=".602"/><stop stop-color="#27AEE6" offset=".605"/><stop stop-color="#28AFE6" offset=".609"/><stop stop-color="#28AFE6" offset=".613"/><stop stop-color="#28B0E7" offset=".617"/><stop stop-color="#29B0E7" offset=".621"/><stop stop-color="#29B1E7" offset=".625"/><stop stop-color="#2AB2E8" offset=".629"/><stop stop-color="#2AB2E8" offset=".633"/><stop stop-color="#2BB3E8" offset=".637"/><stop stop-color="#2BB4E8" offset=".641"/><stop stop-color="#2BB4E9" offset=".645"/><stop stop-color="#2CB5E9" offset=".648"/><stop stop-color="#2CB6E9" offset=".652"/><stop stop-color="#2DB6EA" offset=".656"/><stop stop-color="#2DB7EA" offset=".66"/><stop stop-color="#2EB8EA" offset=".664"/><stop stop-color="#2EB8EA" offset=".668"/><stop stop-color="#2FB9EB" offset=".672"/><stop stop-color="#2FB9EB" offset=".676"/><stop stop-color="#2FBAEB" offset=".68"/><stop stop-color="#30BBEC" offset=".684"/><stop stop-color="#30BBEC" offset=".688"/><stop stop-color="#31BCEC" offset=".691"/><stop stop-color="#31BDED" offset=".695"/><stop stop-color="#32BDED" offset=".699"/><stop stop-color="#32BEED" offset=".703"/><stop stop-color="#32BFED" offset=".707"/><stop stop-color="#33BFEE" offset=".711"/><stop stop-color="#33C0EE" offset=".715"/><stop stop-color="#34C1EE" offset=".719"/><stop stop-color="#34C1EF" offset=".723"/><stop stop-color="#35C2EF" offset=".727"/><stop stop-color="#35C3EF" offset=".73"/><stop stop-color="#35C3F0" offset=".734"/><stop stop-color="#36C3EF" offset=".742"/><stop stop-color="#35C0ED" offset=".746"/><stop stop-color="#35BEEC" offset=".75"/><stop stop-color="#34BBEA" offset=".754"/><stop stop-color="#34B9E8" offset=".758"/><stop stop-color="#33B6E7" offset=".762"/><stop stop-color="#33B4E5" offset=".766"/><stop stop-color="#32B1E4" offset=".77"/><stop stop-color="#32AFE2" offset=".773"/><stop stop-color="#31ADE0" offset=".777"/><stop stop-color="#31AADF" offset=".781"/><stop stop-color="#30A8DD" offset=".785"/><stop stop-color="#30A5DB" offset=".789"/><stop stop-color="#2FA3DA" offset=".793"/><stop stop-color="#2FA0D8" offset=".797"/><stop stop-color="#2E9ED6" offset=".801"/><stop stop-color="#2E9BD5" offset=".805"/><stop stop-color="#2D99D3" offset=".809"/><stop stop-color="#2D96D1" offset=".813"/><stop stop-color="#2C94D0" offset=".816"/><stop stop-color="#2C92CE" offset=".82"/><stop stop-color="#2B8FCD" offset=".824"/><stop stop-color="#2B8DCB" offset=".828"/><stop stop-color="#2A8AC9" offset=".832"/><stop stop-color="#2A88C8" offset=".836"/><stop stop-color="#2985C6" offset=".84"/><stop stop-color="#2983C4" offset=".844"/><stop stop-color="#2880C3" offset=".848"/><stop stop-color="#287EC1" offset=".852"/><stop stop-color="#277BBF" offset=".855"/><stop stop-color="#2779BE" offset=".859"/><stop stop-color="#2777BC" offset=".863"/><stop stop-color="#2674BB" offset=".867"/><stop stop-color="#2672B9" offset=".871"/><stop stop-color="#256FB7" offset=".875"/><stop stop-color="#256FB7" offset="1"/></linearGradient></defs><g clip-path="url(#a)"><g clip-path="url(#b)"><g clip-path="url(#c)"><g clip-path="url(#d)"><g clip-path="url(#e)"><path fill="url(#f)" d="M 233.277344 206.238281 L 371.871094 170.902344 L 338.414062 40.21875 L 199.816406 75.554688 Z M 233.277344 206.238281"/></g></g></g></g></g><g clip-path="url(#g)"><g clip-path="url(#h)"><g clip-path="url(#i)"><g clip-path="url(#j)"><g clip-path="url(#k)"><path fill="url(#l)" d="M 223.289062 184.09375 L 292.324219 166.492188 L 268.707031 74.253906 L 199.671875 91.851562 Z M 223.289062 184.09375"/></g></g></g></g></g><g clip-path="url(#m)"><g clip-path="url(#n)"><g clip-path="url(#o)"><g clip-path="url(#p)"><g clip-path="url(#q)"><path fill="url(#r)" d="M 78.332031 353.789062 L 216.941406 318.449219 L 183.484375 187.769531 L 44.875 223.109375 Z M 78.332031 353.789062"/></g></g></g></g></g><g clip-path="url(#s)"><g clip-path="url(#t)"><g clip-path="url(#u)"><g clip-path="url(#v)"><g clip-path="url(#w)"><path fill="url(#x)" d="M 187.3125 325.84375 L 225.621094 235.125 L 151.199219 203.746094 L 112.890625 294.464844 Z M 187.3125 325.84375"/></g></g></g></g></g><g clip-path="url(#y)"><g clip-path="url(#z)"><g clip-path="url(#A)"><g clip-path="url(#B)"><g clip-path="url(#C)"><path fill="url(#D)" d="M 156.804688 334.398438 L 324.90625 291.539062 L 264.835938 56.914062 L 96.734375 99.773438 Z M 156.804688 334.398438"/></g></g></g></g></g><g fill="#FFDE59"><g><g><path d="M -3.15625 -6.171875 L -4.828125 -4.25 L -6.234375 -5.46875 L -1.375 -11.078125 L 0.03125 -9.859375 L -1.625 -7.953125 L 3.234375 -3.734375 L 1.703125 -1.953125 Z M -3.15625 -6.171875" transform="translate(131.174 295.393)"/></g></g></g><g fill="#FFDE59"><g><g><path d="M -0.546875 -12.015625 L 5.71875 -6.578125 L 4.171875 -4.8125 L 1.734375 -6.9375 L -0.359375 -4.515625 L 2.078125 -2.390625 L 0.546875 -0.625 L -5.71875 -6.0625 L -4.1875 -7.828125 L -1.828125 -5.78125 L 0.265625 -8.203125 L -2.09375 -10.25 Z M -0.546875 -12.015625" transform="translate(139.447 285.866)"/></g></g></g><g fill="#FFDE59"><g><g><path d="M -5.71875 -6.0625 L -4.1875 -7.828125 L 2.078125 -2.390625 L 0.546875 -0.625 Z M -5.71875 -6.0625" transform="translate(149.046 274.81)"/></g></g></g><g fill="#FFDE59"><g><g><path d="M -0.546875 -12.015625 L 5.71875 -6.578125 L 4.453125 -5.125 L -1.296875 -5.265625 L 2.046875 -2.359375 L 0.546875 -0.625 L -5.71875 -6.0625 L -4.453125 -7.53125 L 1.28125 -7.390625 L -2.0625 -10.28125 Z M -0.546875 -12.015625" transform="translate(155.022 267.927)"/></g></g></g><g fill="#FFDE59"><g><g><path d="M 0.359375 -5.03125 L 0.5 -3.75 L 2.0625 -2.390625 L 0.546875 -0.625 L -5.71875 -6.0625 L -4.203125 -7.828125 L -1.59375 -5.5625 L -2.09375 -10.234375 L -0.40625 -12.1875 L 0.140625 -7.21875 L 5.984375 -6.890625 L 4.1875 -4.828125 Z M 0.359375 -5.03125" transform="translate(164.621 256.87)"/></g></g></g><g fill="#FFDE59"><g><g><path d="M -0.828125 -2.96875 C -0.578125 -3.25 -0.273438 -3.40625 0.078125 -3.4375 C 0.429688 -3.46875 0.753906 -3.351562 1.046875 -3.09375 C 1.191406 -2.96875 1.316406 -2.828125 1.421875 -2.671875 C 1.523438 -2.523438 1.65625 -2.269531 1.8125 -1.90625 L 2.640625 -0.203125 L 1.71875 0.859375 L 0.609375 -0.828125 C 0.398438 -0.722656 0.179688 -0.691406 -0.046875 -0.734375 C -0.285156 -0.773438 -0.507812 -0.882812 -0.71875 -1.0625 C -1.007812 -1.320312 -1.164062 -1.628906 -1.1875 -1.984375 C -1.207031 -2.335938 -1.085938 -2.664062 -0.828125 -2.96875 Z M -0.828125 -2.96875" transform="translate(173.802 246.297)"/></g></g></g><g fill="#FFDE59"><g><g><path d="M 2.796875 -15.875 L 7.296875 -8.40625 L 5.671875 -6.53125 L 0.8125 -8.640625 L 3.53125 -4.078125 L 1.890625 -2.171875 L -6.140625 -5.578125 L -4.5625 -7.40625 L 0.546875 -5.203125 L -2.3125 -9.984375 L -0.890625 -11.625 L 4.234375 -9.375 L 1.328125 -14.1875 Z M 2.796875 -15.875" transform="translate(184.945 233.463)"/></g></g></g><g fill="#FFDE59"><g><g><path d="M 1.265625 -4.796875 L 0.421875 -3.828125 L 2.078125 -2.390625 L 0.546875 -0.625 L -5.71875 -6.0625 L -3.234375 -8.9375 C -2.742188 -9.5 -2.222656 -9.90625 -1.671875 -10.15625 C -1.117188 -10.414062 -0.570312 -10.503906 -0.03125 -10.421875 C 0.507812 -10.335938 1.019531 -10.09375 1.5 -9.6875 C 1.945312 -9.300781 2.25 -8.851562 2.40625 -8.34375 C 2.5625 -7.84375 2.566406 -7.3125 2.421875 -6.75 L 5.546875 -6.390625 L 3.90625 -4.5 Z M -0.046875 -7.90625 C -0.335938 -8.15625 -0.644531 -8.253906 -0.96875 -8.203125 C -1.289062 -8.160156 -1.609375 -7.960938 -1.921875 -7.609375 L -2.78125 -6.609375 L -0.953125 -5.015625 L -0.09375 -6.015625 C 0.21875 -6.367188 0.375 -6.707031 0.375 -7.03125 C 0.382812 -7.363281 0.242188 -7.65625 -0.046875 -7.90625 Z M -0.046875 -7.90625" transform="translate(197.478 219.028)"/></g></g></g><g fill="#FFDE59"><g><g><path d="M -5.71875 -6.0625 L -4.1875 -7.828125 L 2.078125 -2.390625 L 0.546875 -0.625 Z M -5.71875 -6.0625" transform="translate(206.566 208.562)"/></g></g></g><g fill="#FFDE59"><g><g><path d="M -3.15625 -6.171875 L -4.828125 -4.25 L -6.234375 -5.46875 L -1.375 -11.078125 L 0.03125 -9.859375 L -1.625 -7.953125 L 3.234375 -3.734375 L 1.703125 -1.953125 Z M -3.15625 -6.171875" transform="translate(212.541 201.68)"/></g></g></g><g fill="#FFDE59"><g><g><path d="M 3.53125 -6.84375 L 4.90625 -5.65625 L 0.546875 -0.625 L -5.71875 -6.0625 L -1.46875 -10.96875 L -0.09375 -9.78125 L -2.828125 -6.640625 L -1.765625 -5.71875 L 0.65625 -8.484375 L 1.96875 -7.34375 L -0.453125 -4.578125 L 0.6875 -3.578125 Z M 3.53125 -6.84375" transform="translate(220.814 192.152)"/></g></g></g><g fill="#FFDE59"><g><g><path d="M -0.828125 -2.96875 C -0.578125 -3.25 -0.273438 -3.40625 0.078125 -3.4375 C 0.429688 -3.46875 0.753906 -3.351562 1.046875 -3.09375 C 1.191406 -2.96875 1.316406 -2.828125 1.421875 -2.671875 C 1.523438 -2.523438 1.65625 -2.269531 1.8125 -1.90625 L 2.640625 -0.203125 L 1.71875 0.859375 L 0.609375 -0.828125 C 0.398438 -0.722656 0.179688 -0.691406 -0.046875 -0.734375 C -0.285156 -0.773438 -0.507812 -0.882812 -0.71875 -1.0625 C -1.007812 -1.320312 -1.164062 -1.628906 -1.1875 -1.984375 C -1.207031 -2.335938 -1.085938 -2.664062 -0.828125 -2.96875 Z M -0.828125 -2.96875" transform="translate(229.373 182.293)"/></g></g></g><g fill="#FFDE59"><g><g><path d="M 2.578125 -2.71875 C 2.140625 -2.207031 1.648438 -1.769531 1.109375 -1.40625 C 0.566406 -1.039062 0.0625 -0.796875 -0.40625 -0.671875 L -1.1875 -2.390625 C -0.769531 -2.515625 -0.34375 -2.707031 0.09375 -2.96875 C 0.53125 -3.238281 0.898438 -3.550781 1.203125 -3.90625 C 1.796875 -4.59375 1.921875 -5.085938 1.578125 -5.390625 C 1.398438 -5.546875 1.1875 -5.5625 0.9375 -5.4375 C 0.6875 -5.3125 0.320312 -5.078125 -0.15625 -4.734375 C -0.65625 -4.359375 -1.101562 -4.0625 -1.5 -3.84375 C -1.894531 -3.632812 -2.316406 -3.523438 -2.765625 -3.515625 C -3.222656 -3.515625 -3.671875 -3.703125 -4.109375 -4.078125 C -4.492188 -4.410156 -4.75 -4.8125 -4.875 -5.28125 C -5 -5.757812 -4.96875 -6.28125 -4.78125 -6.84375 C -4.601562 -7.414062 -4.253906 -8.003906 -3.734375 -8.609375 C -3.367188 -9.023438 -2.96875 -9.394531 -2.53125 -9.71875 C -2.09375 -10.039062 -1.648438 -10.273438 -1.203125 -10.421875 L -0.375 -8.734375 C -1.207031 -8.398438 -1.863281 -7.957031 -2.34375 -7.40625 C -2.644531 -7.050781 -2.816406 -6.75 -2.859375 -6.5 C -2.898438 -6.25 -2.835938 -6.050781 -2.671875 -5.90625 C -2.492188 -5.757812 -2.28125 -5.742188 -2.03125 -5.859375 C -1.78125 -5.984375 -1.429688 -6.21875 -0.984375 -6.5625 C -0.460938 -6.945312 -0.0078125 -7.242188 0.375 -7.453125 C 0.769531 -7.671875 1.191406 -7.785156 1.640625 -7.796875 C 2.085938 -7.816406 2.523438 -7.640625 2.953125 -7.265625 C 3.335938 -6.929688 3.585938 -6.523438 3.703125 -6.046875 C 3.828125 -5.578125 3.800781 -5.050781 3.625 -4.46875 C 3.445312 -3.894531 3.097656 -3.3125 2.578125 -2.71875 Z M 2.578125 -2.71875" transform="translate(240.517 169.458)"/></g></g></g><g fill="#FFDE59"><g><g><path d="M 2.796875 -15.875 L 7.296875 -8.40625 L 5.671875 -6.53125 L 0.8125 -8.640625 L 3.53125 -4.078125 L 1.890625 -2.171875 L -6.140625 -5.578125 L -4.5625 -7.40625 L 0.546875 -5.203125 L -2.3125 -9.984375 L -0.890625 -11.625 L 4.234375 -9.375 L 1.328125 -14.1875 Z M 2.796875 -15.875" transform="translate(248.883 159.823)"/></g></g></g><g fill="#FFDE59"><g><g><path d="M -5.71875 -6.0625 L -4.1875 -7.828125 L 2.078125 -2.390625 L 0.546875 -0.625 Z M -5.71875 -6.0625" transform="translate(261.416 145.388)"/></g></g></g><g fill="#FFDE59"><g><g><path d="M -3.234375 -8.9375 C -2.742188 -9.5 -2.222656 -9.90625 -1.671875 -10.15625 C -1.117188 -10.414062 -0.570312 -10.503906 -0.03125 -10.421875 C 0.507812 -10.335938 1.019531 -10.09375 1.5 -9.6875 C 1.96875 -9.28125 2.28125 -8.8125 2.4375 -8.28125 C 2.59375 -7.757812 2.578125 -7.207031 2.390625 -6.625 C 2.210938 -6.050781 1.878906 -5.484375 1.390625 -4.921875 L 0.4375 -3.8125 L 2.078125 -2.390625 L 0.546875 -0.625 L -5.71875 -6.0625 Z M -0.09375 -6.015625 C 0.21875 -6.367188 0.375 -6.707031 0.375 -7.03125 C 0.382812 -7.363281 0.242188 -7.65625 -0.046875 -7.90625 C -0.335938 -8.15625 -0.644531 -8.253906 -0.96875 -8.203125 C -1.289062 -8.160156 -1.609375 -7.960938 -1.921875 -7.609375 L -2.78125 -6.609375 L -0.953125 -5.015625 Z M -0.09375 -6.015625" transform="translate(267.391 138.506)"/></g></g></g><g fill="#FFDE59"><g><g><path d="M 3.53125 -6.84375 L 4.90625 -5.65625 L 0.546875 -0.625 L -5.71875 -6.0625 L -1.46875 -10.96875 L -0.09375 -9.78125 L -2.828125 -6.640625 L -1.765625 -5.71875 L 0.65625 -8.484375 L 1.96875 -7.34375 L -0.453125 -4.578125 L 0.6875 -3.578125 Z M 3.53125 -6.84375" transform="translate(276.455 128.067)"/></g></g></g></svg>